<?xml version="1.0" encoding="utf-8"?>
<!-- Generator: Adobe Illustrator 19.0.0, SVG Export Plug-In . SVG Version: 6.00 Build 0)  -->
<svg version="1.1" id="Layer_1" xmlns="http://www.w3.org/2000/svg" xmlns:xlink="http://www.w3.org/1999/xlink" x="0px" y="0px"
	 viewBox="0 0 203.8 76.3" style="enable-background:new 0 0 203.8 76.3;" xml:space="preserve">
<style type="text/css">
	.st0{clip-path:url(#XMLID_112_);}
	.st1{clip-path:url(#XMLID_113_);}
	.st2{clip-path:url(#XMLID_115_);fill:url(#XMLID_116_);}
	.st3{filter:url(#Adobe_OpacityMaskFilter);}
	.st4{clip-path:url(#XMLID_117_);fill:url(#XMLID_119_);}
	.st5{clip-path:url(#XMLID_117_);mask:url(#XMLID_118_);}
	.st6{clip-path:url(#XMLID_120_);fill:#FFFFFF;}
	.st7{filter:url(#Adobe_OpacityMaskFilter_1_);}
	.st8{clip-path:url(#XMLID_117_);fill:url(#XMLID_122_);}
	.st9{clip-path:url(#XMLID_117_);mask:url(#XMLID_121_);}
	.st10{clip-path:url(#XMLID_123_);fill:#FFFFFF;}
	.st11{filter:url(#Adobe_OpacityMaskFilter_2_);}
	.st12{clip-path:url(#XMLID_117_);fill:url(#XMLID_125_);}
	.st13{clip-path:url(#XMLID_117_);mask:url(#XMLID_124_);}
	.st14{clip-path:url(#XMLID_126_);fill:#FFFFFF;}
	.st15{fill:#1E4485;}
	.st16{fill:#034EA2;}
</style>
<g id="XMLID_374_">
	<g id="XMLID_461_">
		<g id="XMLID_462_">
			<defs>
				<rect id="XMLID_463_" x="-6.6" y="40.5" width="61" height="21.7"/>
			</defs>
			<clipPath id="XMLID_112_">
				<use xlink:href="#XMLID_463_"  style="overflow:visible;"/>
			</clipPath>
			<g id="XMLID_464_" class="st0">
				<defs>
					<rect id="XMLID_465_" x="-0.2" y="50.5" width="49.3" height="11.6"/>
				</defs>
				<clipPath id="XMLID_113_">
					<use xlink:href="#XMLID_465_"  style="overflow:visible;"/>
				</clipPath>
				<g id="XMLID_466_" class="st1">
					<defs>
						<rect id="XMLID_467_" x="-0.2" y="50.5" width="49.3" height="11.8"/>
					</defs>
					<clipPath id="XMLID_114_">
						<use xlink:href="#XMLID_467_"  style="overflow:visible;"/>
					</clipPath>
				</g>
			</g>
		</g>
	</g>
	<g id="XMLID_456_">
		<defs>
			<path id="XMLID_457_" d="M25,27.2c-3.8,0-7.4-3.9-10.7-1.3c-6,4.7-6.4,26.2,3.8,26.2l0,0c2.9,0,5.5-2.1,6.1-4.9
				c0.8-3.5-1.6-3.1-3.7-4.7c-2.6-1.9-4.8-7.9-1.7-10.3c1.4-1.1,4.1,0.1,5.4,1.2c0.2,0.2,0.5,0.3,0.8,0.3c0.3,0,0.6-0.1,0.8-0.3
				c1.3-1.1,4-2.3,5.4-1.2c3.1,2.5,0.9,8.4-1.7,10.3c-2.1,1.6-4.5,1.2-3.7,4.7c0.6,2.8,3.1,4.9,6.1,4.9l0,0
				c10.2,0,9.9-21.4,3.8-26.2C34.9,25.2,34,25,33.2,25C30.6,25,27.9,27.2,25,27.2 M17.4,16.9c0,4.2,3.4,7.6,7.6,7.6
				c4.2,0,7.6-3.4,7.6-7.6c0-4.2-3.4-7.6-7.6-7.6C20.8,9.3,17.4,12.7,17.4,16.9"/>
		</defs>
		<clipPath id="XMLID_115_">
			<use xlink:href="#XMLID_457_"  style="overflow:visible;"/>
		</clipPath>
		
			<linearGradient id="XMLID_116_" gradientUnits="userSpaceOnUse" x1="-1304.2758" y1="1874.5526" x2="-1304.1957" y2="1874.5526" gradientTransform="matrix(418.3083 498.5204 498.5204 -418.3083 -388905.0938 1434359.75)">
			<stop  offset="0" style="stop-color:#C2E1DE"/>
			<stop  offset="0.116" style="stop-color:#9DCFDF"/>
			<stop  offset="0.2848" style="stop-color:#6BBBE0"/>
			<stop  offset="0.4157" style="stop-color:#42B1E2"/>
			<stop  offset="0.4917" style="stop-color:#29ADE3"/>
			<stop  offset="0.5413" style="stop-color:#2AA8E0"/>
			<stop  offset="0.6141" style="stop-color:#2A9CD6"/>
			<stop  offset="0.7012" style="stop-color:#2D89C7"/>
			<stop  offset="0.7993" style="stop-color:#2E70B4"/>
			<stop  offset="0.9053" style="stop-color:#2E53A0"/>
			<stop  offset="0.989" style="stop-color:#2E368F"/>
			<stop  offset="1" style="stop-color:#2E368F"/>
		</linearGradient>
		<polygon id="XMLID_460_" class="st2" points="28,-7.6 63.2,34.4 22,69 -13.2,27 		"/>
	</g>
	<g id="XMLID_434_">
		<defs>
			<path id="XMLID_435_" d="M25,27.2c-3.8,0-7.4-3.9-10.7-1.3c-6,4.7-6.4,26.2,3.8,26.2l0,0c2.9,0,5.5-2.1,6.1-4.9
				c0.8-3.5-1.6-3.1-3.7-4.7c-2.6-1.9-4.8-7.9-1.7-10.3c1.4-1.1,4.1,0.1,5.4,1.2c0.2,0.2,0.5,0.3,0.8,0.3c0.3,0,0.6-0.1,0.8-0.3
				c1.3-1.1,4-2.3,5.4-1.2c3.1,2.5,0.9,8.4-1.7,10.3c-2.1,1.6-4.5,1.2-3.7,4.7c0.6,2.8,3.1,4.9,6.1,4.9l0,0
				c10.2,0,9.9-21.4,3.8-26.2C34.9,25.2,34,25,33.2,25C30.6,25,27.9,27.2,25,27.2 M17.4,16.9c0,4.2,3.4,7.6,7.6,7.6
				c4.2,0,7.6-3.4,7.6-7.6c0-4.2-3.4-7.6-7.6-7.6C20.8,9.3,17.4,12.7,17.4,16.9"/>
		</defs>
		<clipPath id="XMLID_117_">
			<use xlink:href="#XMLID_435_"  style="overflow:visible;"/>
		</clipPath>
		<defs>
			<filter id="Adobe_OpacityMaskFilter" filterUnits="userSpaceOnUse" x="-7.4" y="26.7" width="50.5" height="49.8">
				<feColorMatrix  type="matrix" values="1 0 0 0 0  0 1 0 0 0  0 0 1 0 0  0 0 0 1 0"/>
			</filter>
		</defs>
		<mask maskUnits="userSpaceOnUse" x="-7.4" y="26.7" width="50.5" height="49.8" id="XMLID_118_">
			<g id="XMLID_97_" class="st3">
				
					<linearGradient id="XMLID_119_" gradientUnits="userSpaceOnUse" x1="-1305.8875" y1="1876.6313" x2="-1305.8075" y2="1876.6313" gradientTransform="matrix(-331.2657 740.5537 740.5537 331.2657 -1822312.75 345437.5625)">
					<stop  offset="0" style="stop-color:#FFFFFF"/>
					<stop  offset="0.29" style="stop-color:#000000"/>
					<stop  offset="0.8996" style="stop-color:#000000"/>
					<stop  offset="1" style="stop-color:#000000"/>
				</linearGradient>
				<polygon id="XMLID_98_" class="st4" points="58.1,16.4 36.4,64.9 -8.1,44.9 13.6,-3.5 				"/>
			</g>
		</mask>
		<g id="XMLID_452_" class="st5">
			<g id="XMLID_453_">
				<defs>
					<rect id="XMLID_454_" x="-7.4" y="26.7" width="50.5" height="49.8"/>
				</defs>
				<clipPath id="XMLID_120_">
					<use xlink:href="#XMLID_454_"  style="overflow:visible;"/>
				</clipPath>
				<path id="XMLID_455_" class="st6" d="M17.8,27.3c13.5,0,24.5,11,24.5,24.6c0,13.6-11,24.6-24.5,24.6c-13.5,0-24.5-11-24.5-24.6
					C-6.7,38.3,4.3,27.3,17.8,27.3"/>
			</g>
		</g>
		<defs>
			<filter id="Adobe_OpacityMaskFilter_1_" filterUnits="userSpaceOnUse" x="-14.6" y="26.3" width="44.2" height="43.5">
				<feColorMatrix  type="matrix" values="1 0 0 0 0  0 1 0 0 0  0 0 1 0 0  0 0 0 1 0"/>
			</filter>
		</defs>
		<mask maskUnits="userSpaceOnUse" x="-14.6" y="26.3" width="44.2" height="43.5" id="XMLID_121_">
			<g id="XMLID_89_" class="st7">
				
					<linearGradient id="XMLID_122_" gradientUnits="userSpaceOnUse" x1="-1305.5696" y1="1877.0374" x2="-1305.4896" y2="1877.0374" gradientTransform="matrix(-224.407 644.4093 644.4093 224.407 -1502532.625 420126.9375)">
					<stop  offset="0" style="stop-color:#FFFFFF"/>
					<stop  offset="0.31" style="stop-color:#000000"/>
					<stop  offset="0.9025" style="stop-color:#000000"/>
					<stop  offset="1" style="stop-color:#000000"/>
				</linearGradient>
				<polygon id="XMLID_90_" class="st8" points="55.4,13.9 38.4,62.7 -5.4,47.4 11.5,-1.4 				"/>
			</g>
		</mask>
		<g id="XMLID_446_" class="st9">
			<g id="XMLID_447_">
				<defs>
					<rect id="XMLID_448_" x="-14.6" y="26.3" width="44.2" height="43.5"/>
				</defs>
				<clipPath id="XMLID_123_">
					<use xlink:href="#XMLID_448_"  style="overflow:visible;"/>
				</clipPath>
				<path id="XMLID_449_" class="st10" d="M7.5,26.9c11.8,0,21.4,9.6,21.4,21.4c0,11.8-9.6,21.4-21.4,21.4
					c-11.8,0-21.4-9.6-21.4-21.4C-13.9,36.5-4.3,26.9,7.5,26.9"/>
			</g>
		</g>
		<defs>
			<filter id="Adobe_OpacityMaskFilter_2_" filterUnits="userSpaceOnUse" x="-9.2" y="29.3" width="44.2" height="43.5">
				<feColorMatrix  type="matrix" values="1 0 0 0 0  0 1 0 0 0  0 0 1 0 0  0 0 0 1 0"/>
			</filter>
		</defs>
		<mask maskUnits="userSpaceOnUse" x="-9.2" y="29.3" width="44.2" height="43.5" id="XMLID_124_">
			<g id="XMLID_79_" class="st11">
				
					<linearGradient id="XMLID_125_" gradientUnits="userSpaceOnUse" x1="-1305.6079" y1="1876.9282" x2="-1305.528" y2="1876.9282" gradientTransform="matrix(-230.9859 645.1187 645.1187 230.9859 -1512392.125 408755.0938)">
					<stop  offset="0" style="stop-color:#FFFFFF"/>
					<stop  offset="0.33" style="stop-color:#000000"/>
					<stop  offset="0.9053" style="stop-color:#000000"/>
					<stop  offset="1" style="stop-color:#000000"/>
				</linearGradient>
				<polygon id="XMLID_82_" class="st12" points="55.7,14.2 38.3,63 -5.7,47.2 11.7,-1.6 				"/>
			</g>
		</mask>
		<g id="XMLID_440_" class="st13">
			<g id="XMLID_441_">
				<defs>
					<rect id="XMLID_442_" x="-9.2" y="29.3" width="44.2" height="43.5"/>
				</defs>
				<clipPath id="XMLID_126_">
					<use xlink:href="#XMLID_442_"  style="overflow:visible;"/>
				</clipPath>
				<path id="XMLID_443_" class="st14" d="M12.9,29.8c11.8,0,21.4,9.6,21.4,21.4c0,11.8-9.6,21.4-21.4,21.4
					c-11.8,0-21.4-9.6-21.4-21.4C-8.5,39.4,1.1,29.8,12.9,29.8"/>
			</g>
		</g>
	</g>
	<path id="XMLID_420_" class="st15" d="M186.1,38.7L186.1,38.7l0.5,0.7h-0.8h-7.9H177l0.5-0.7c0.4-0.5,0.8-0.9,1.3-1.2
		c0.1-0.1,0.2-0.1,0.3-0.2c0.1-0.1,0.2-0.1,0.3-0.2l0,0c0.4-0.2,0.7-0.4,1.2-0.5c0.4-0.1,0.8-0.1,1.3-0.1l0,0c0.4,0,0.9,0.1,1.3,0.1
		c0.4,0.1,0.8,0.2,1.2,0.5c0.5,0.3,1,0.6,1.4,1c0.1,0.1,0.2,0.2,0.2,0.3C185.9,38.6,186,38.6,186.1,38.7L186.1,38.7z M185.7,32.5
		c-1.2-0.6-2.5-0.8-3.9-0.8c-0.7,0-1.4,0.1-2,0.2c-0.6,0.1-1.3,0.3-1.9,0.6c-0.9,0.4-1.7,0.9-2.4,1.5c-0.1,0.1-0.3,0.2-0.4,0.4
		c-0.1,0.1-0.3,0.3-0.4,0.4v0l0,0h0c-0.7,0.7-1.2,1.4-1.7,2.3c-0.1,0.2-0.2,0.3-0.3,0.5c-0.1,0.2-0.2,0.3-0.2,0.5l0,0
		c-0.2,0.5-0.4,1-0.5,1.6c0,0.1,0,0.2-0.1,0.3c-0.1,0.6-0.2,1.3-0.2,1.9h0l0,0c0,1,0.1,1.9,0.4,2.8c0.1,0.2,0.1,0.3,0.2,0.5
		c0.1,0.2,0.1,0.4,0.2,0.5l0,0l0,0l0,0c0.5,1.3,1.3,2.4,2.2,3.3c0.7,0.7,1.4,1.2,2.3,1.7c0.2,0.1,0.3,0.2,0.5,0.3
		c0.2,0.1,0.3,0.2,0.5,0.2l0,0c0.9,0.4,1.8,0.6,2.7,0.7c0.2,0,0.4,0,0.6,0c0.2,0,0.4,0,0.6,0l0,0h0c0.7,0,1.5-0.1,2.2-0.2
		c0.1,0,0.2,0,0.4-0.1l0,0c0.1,0,0.2-0.1,0.4-0.1l0,0l0,0c0.6-0.2,1.3-0.4,1.8-0.8c0.1-0.1,0.2-0.1,0.3-0.2c0.1-0.1,0.2-0.1,0.3-0.2
		c0.3-0.3,0.4-0.6,0.6-0.9c0-0.1,0-0.1,0.1-0.2c0-0.1,0-0.1,0-0.2v0c0-0.2,0-0.5,0-0.7c0-0.2-0.1-0.4-0.2-0.6
		c-0.2-0.4-0.5-0.8-0.9-1c-0.2-0.1-0.4-0.2-0.6-0.3c-0.2-0.1-0.5-0.1-0.7-0.1l0,0c-0.1,0-0.3,0-0.4,0v0c-0.1,0-0.2,0-0.3,0.1
		c-0.1,0-0.2,0.1-0.3,0.1c-0.1,0-0.2,0.1-0.4,0.2c-0.2,0.1-0.4,0.2-0.6,0.2c-0.1,0-0.1,0-0.1,0c-0.1,0-0.1,0-0.1,0l0,0h0l0,0
		c-0.1,0-0.3,0.1-0.5,0.1c0,0-0.1,0-0.1,0c-0.2,0-0.4,0-0.7,0l0,0h0c-1.3,0-2.4-0.4-3.3-1.2c-0.2-0.1-0.3-0.3-0.5-0.5
		c-0.2-0.2-0.3-0.4-0.5-0.6v0l0,0l-0.4-0.6h0.7h11.6h0c0.4,0,0.7,0,1-0.2c0.3-0.1,0.6-0.3,0.8-0.6c0.2-0.2,0.4-0.4,0.5-0.7
		c0,0,0-0.1,0.1-0.1c0.1-0.3,0.2-0.6,0.2-0.9h0l0,0c0-1.3-0.3-2.6-0.8-3.8c-0.4-0.9-0.9-1.7-1.5-2.4c-0.1-0.2-0.2-0.3-0.4-0.4
		c-0.1-0.1-0.2-0.3-0.4-0.4l0,0c-0.5-0.5-1-0.9-1.5-1.3C186.9,33.1,186.3,32.8,185.7,32.5 M159.7,51.4c0.4,0.4,1,0.7,1.7,0.7
		c0.4,0,0.7-0.1,1-0.2c0.1-0.1,0.3-0.1,0.4-0.2c0.1-0.1,0.2-0.2,0.3-0.3l0,0v0h0c0.3-0.3,0.5-0.7,0.6-1.1h0c0-0.1,0-0.2,0.1-0.3
		c0-0.1,0-0.2,0-0.3v-7.9c0-0.4,0-0.7,0.1-1.1c0.1-0.4,0.2-0.7,0.3-1c0.2-0.5,0.5-0.9,0.8-1.3c0.1-0.1,0.1-0.1,0.2-0.2
		c0.1-0.1,0.1-0.1,0.2-0.2l0,0c0.2-0.2,0.5-0.4,0.8-0.6c0.1-0.1,0.3-0.2,0.4-0.3c0.1-0.1,0.3-0.2,0.5-0.2l0,0
		c0.2-0.1,0.4-0.2,0.6-0.2c0.1,0,0.2-0.1,0.3-0.1c0.3-0.1,0.7-0.1,1-0.1l0,0h0l0,0l0,0l0,0c0.4,0,0.7-0.1,1-0.2
		c0.3-0.1,0.6-0.3,0.8-0.5c0.2-0.2,0.4-0.5,0.5-0.8c0.1-0.3,0.2-0.6,0.2-0.9c0-0.5-0.2-0.9-0.4-1.3c0-0.1-0.1-0.1-0.2-0.2v0
		c-0.1-0.1-0.1-0.1-0.2-0.2l0,0h0c-0.2-0.2-0.4-0.4-0.6-0.5l0,0c0,0-0.1,0-0.1-0.1l0,0c-0.3-0.1-0.6-0.2-1-0.2l0,0l0,0h0l0,0
		c-1,0-1.9,0.2-2.8,0.5c-0.2,0.1-0.4,0.1-0.5,0.2c-0.2,0.1-0.3,0.1-0.5,0.2l0,0l0,0c-0.6,0.3-1.2,0.6-1.7,0.9
		c-0.5,0.3-1,0.7-1.5,1.2c-0.5,0.4-0.9,0.9-1.2,1.4c-0.4,0.5-0.7,1.1-1,1.7c-0.4,0.8-0.6,1.7-0.8,2.7c0,0.2,0,0.4-0.1,0.6
		c0,0.2,0,0.4,0,0.6v0l0,0v8.1C159,50.4,159.3,51,159.7,51.4 M147.8,47.1c-0.3,0.1-0.7,0.1-1.1,0.1c-0.3,0-0.7,0-1-0.1
		c-0.3-0.1-0.6-0.2-1-0.3c-0.3-0.1-0.6-0.3-0.9-0.5c-0.3-0.2-0.5-0.4-0.8-0.6c-0.3-0.3-0.6-0.7-0.9-1.2c0-0.1-0.1-0.2-0.1-0.3
		c-0.1-0.1-0.1-0.2-0.1-0.3l0,0c-0.2-0.3-0.3-0.7-0.3-1c-0.1-0.3-0.1-0.7-0.1-1.1c0-0.3,0-0.7,0.1-1c0.1-0.3,0.2-0.7,0.3-1
		c0.1-0.3,0.3-0.6,0.5-0.9c0.2-0.3,0.4-0.5,0.7-0.8l0,0c0.2-0.2,0.5-0.5,0.8-0.7c0.3-0.2,0.6-0.4,0.9-0.5c0.2-0.1,0.4-0.2,0.6-0.2
		c0.1,0,0.2-0.1,0.3-0.1c0.3-0.1,0.7-0.1,1-0.1l0,0l0,0c0.3,0,0.7,0,1,0.1c0.3,0.1,0.7,0.2,1,0.3c0.3,0.1,0.6,0.3,0.9,0.5
		c0.3,0.2,0.5,0.4,0.8,0.7c0.2,0.2,0.5,0.5,0.7,0.8c0.2,0.3,0.4,0.6,0.5,0.9c0.1,0.3,0.2,0.7,0.3,1c0.1,0.3,0.1,0.7,0.1,1
		c0,0.4,0,0.7-0.1,1.1c-0.1,0.4-0.2,0.7-0.3,1c-0.1,0.3-0.3,0.6-0.5,0.9c-0.2,0.3-0.4,0.5-0.6,0.8v0c-0.3,0.3-0.7,0.6-1.2,0.9
		c-0.1,0.1-0.2,0.1-0.3,0.1c-0.1,0-0.2,0.1-0.3,0.1l0,0l0,0C148.5,46.9,148.2,47,147.8,47.1 M148,31.7L148,31.7L148,31.7
		c-0.2,0-0.4,0-0.5,0h-0.6l0,0c-1.5,0-2.9,0.3-4.2,0.9c-0.2,0.1-0.5,0.2-0.7,0.4c-0.2,0.1-0.5,0.3-0.7,0.4l0,0l0,0h0
		c-0.8,0.6-1.5,1.2-2.2,2c-0.6,0.7-1.1,1.6-1.5,2.5c-0.2,0.5-0.4,0.9-0.5,1.4c0,0.1-0.1,0.2-0.1,0.3c0,0.1,0,0.2-0.1,0.3v0
		c-0.1,0.7-0.2,1.4-0.2,2.1c0,0.5,0,1,0.1,1.5c0,0.1,0,0.2,0.1,0.3c0,0.1,0,0.2,0.1,0.3v0c0.1,0.5,0.3,1,0.4,1.4
		c0,0.1,0.1,0.2,0.1,0.3c0,0.1,0.1,0.2,0.1,0.3l0,0l0,0l0,0c0.8,1.8,2.1,3.3,3.7,4.4c0.7,0.5,1.4,0.9,2.2,1.1
		c0.1,0.1,0.3,0.1,0.5,0.1c0.9,0.3,1.9,0.4,3,0.4l0,0h0c0.6,0,1.1,0,1.7-0.1c0.1,0,0.2,0,0.3-0.1l0,0c0.1,0,0.2,0,0.3-0.1h0l0,0
		c0.3-0.1,0.7-0.2,1-0.3c0.3-0.1,0.7-0.3,1-0.4l0,0c0.1-0.1,0.2-0.1,0.3-0.2c0.1,0,0.1-0.1,0.2-0.1c0.1,0,0.2-0.1,0.2-0.1l0.3-0.1
		l0.2,0.3c0.5,0.8,1.2,1.2,2.1,1.2l0,0c0.3,0,0.6-0.1,0.9-0.2c0.3-0.1,0.6-0.3,0.8-0.5c0.5-0.5,0.7-1.1,0.7-1.7l0,0v-7.7
		c0-0.9-0.1-1.8-0.4-2.7c0-0.2-0.1-0.3-0.1-0.5c-0.1-0.2-0.1-0.3-0.2-0.5l0,0v0l0,0c-0.2-0.6-0.5-1.1-0.8-1.7l0,0
		c-0.3-0.5-0.7-1-1.1-1.5c-0.4-0.5-0.8-0.9-1.3-1.2c-0.5-0.4-1-0.7-1.5-1c-0.8-0.4-1.6-0.7-2.5-0.9c-0.2,0-0.4-0.1-0.5-0.1
		C148.4,31.8,148.2,31.8,148,31.7 M127.1,31.7L127.1,31.7L127.1,31.7c-0.7,0-1.4,0.1-2,0.2c-0.7,0.1-1.3,0.3-1.9,0.6
		c-0.6,0.3-1.2,0.6-1.7,1c-0.5,0.4-1.1,0.8-1.5,1.3c-0.9,0.9-1.7,2-2.2,3.2c-0.5,1.2-0.8,2.5-0.8,3.9c0,1,0.1,1.9,0.4,2.9
		c0.1,0.2,0.1,0.4,0.2,0.5c0.1,0.2,0.1,0.3,0.2,0.5l0,0l0,0l0,0c0.4,0.9,0.9,1.7,1.5,2.4l0,0c0.1,0.1,0.2,0.3,0.4,0.4
		c0.1,0.1,0.2,0.3,0.4,0.4l0,0c0.7,0.7,1.4,1.2,2.2,1.7c0.2,0.1,0.3,0.2,0.5,0.3c0.2,0.1,0.3,0.2,0.5,0.2l0,0
		c0.6,0.3,1.3,0.5,1.9,0.6v0c0.7,0.1,1.3,0.2,2,0.2l0,0c1,0,2-0.1,2.9-0.4c0.2-0.1,0.3-0.1,0.5-0.2c0.2-0.1,0.3-0.1,0.5-0.2l0,0
		c1.2-0.5,2.2-1.2,3.2-2.2l0,0c0.1-0.1,0.2-0.2,0.2-0.3c0.1-0.1,0.1-0.3,0.2-0.4c0.1-0.1,0.1-0.3,0.1-0.4c0-0.1,0-0.3,0-0.5
		c0-0.3-0.1-0.6-0.2-0.9c-0.1-0.2-0.2-0.4-0.3-0.5c0,0-0.1-0.1-0.1-0.1c0,0-0.1-0.1-0.1-0.1l0,0l0,0l0,0l0,0
		c-0.2-0.2-0.4-0.4-0.6-0.5c0,0-0.1,0-0.1-0.1c-0.3-0.1-0.6-0.2-1-0.2l0,0l0,0c-0.4,0-0.7,0.1-1,0.2c-0.3,0.1-0.5,0.3-0.8,0.6l0,0
		l0,0c-0.5,0.4-1,0.7-1.6,1c-0.6,0.2-1.2,0.3-1.9,0.3l0,0c-0.4,0-0.7,0-1-0.1c-0.4-0.1-0.7-0.2-1-0.3c-0.5-0.2-0.9-0.5-1.3-0.8v0
		c-0.1-0.1-0.2-0.1-0.2-0.2c-0.1-0.1-0.1-0.1-0.2-0.2l0,0l0,0c-0.4-0.3-0.7-0.7-0.9-1.2c-0.1-0.1-0.1-0.2-0.1-0.3
		c0-0.1-0.1-0.2-0.1-0.3l0,0v0l0,0c-0.1-0.3-0.2-0.7-0.3-1c-0.1-0.3-0.1-0.7-0.1-1.1c0-0.3,0-0.7,0.1-1c0.1-0.3,0.2-0.7,0.3-1
		c0.2-0.4,0.5-0.9,0.8-1.2c0.1-0.1,0.1-0.1,0.2-0.2l0,0c0.1-0.1,0.1-0.1,0.2-0.2l0,0l0,0c0.2-0.2,0.5-0.5,0.8-0.7
		c0.3-0.2,0.6-0.4,0.9-0.5c0.3-0.1,0.7-0.3,1-0.3c0.3-0.1,0.7-0.1,1.1-0.1c0.7,0,1.3,0.1,1.9,0.3c0.3,0.1,0.6,0.3,0.8,0.4
		c0.3,0.2,0.5,0.4,0.8,0.6h0l0,0l0,0c0.2,0.2,0.5,0.4,0.7,0.5c0.3,0.1,0.6,0.2,1,0.1c0.5,0,1-0.1,1.3-0.4c0.1,0,0.1-0.1,0.2-0.1
		c0.1,0,0.1-0.1,0.2-0.2l0,0l0,0c0.3-0.3,0.5-0.7,0.6-1.1c0-0.1,0-0.2,0.1-0.3c0-0.1,0-0.2,0-0.3l0,0v0c0-0.3,0-0.6-0.1-0.9
		c-0.1-0.3-0.2-0.5-0.4-0.8l0,0c-0.8-0.8-1.7-1.5-2.7-1.9c-0.2-0.1-0.4-0.2-0.6-0.3C129.8,31.9,128.5,31.7,127.1,31.7 M114.2,32.5
		c-0.4-0.5-1-0.7-1.6-0.7l0,0c-0.3,0-0.6,0.1-0.9,0.2c-0.3,0.1-0.5,0.3-0.8,0.5c-0.5,0.4-0.7,1-0.8,1.6v15.8
		c0.1,0.7,0.4,1.3,0.8,1.7c0.2,0.2,0.5,0.3,0.7,0.5c0.3,0.1,0.6,0.1,0.9,0.1c0.5,0,1-0.2,1.3-0.4c0.1,0,0.1-0.1,0.2-0.1
		c0.1-0.1,0.1-0.1,0.2-0.2l0,0c0.2-0.2,0.4-0.5,0.5-0.8c0.1-0.3,0.2-0.6,0.2-0.9V34.3c0-0.3-0.1-0.7-0.2-0.9
		C114.6,33,114.4,32.8,114.2,32.5 M113.4,25.3c-0.3-0.1-0.6-0.2-0.9-0.2c-0.3,0-0.6,0.1-0.9,0.2c-0.3,0.1-0.6,0.3-0.8,0.5
		c-0.2,0.2-0.4,0.5-0.6,0.7c-0.1,0.3-0.2,0.6-0.2,0.9l0,0c0,0.4,0.1,0.8,0.2,1.1c0.1,0.2,0.1,0.3,0.2,0.4c0.1,0.1,0.2,0.2,0.3,0.3
		l0,0v0c0.2,0.2,0.5,0.4,0.8,0.5c0.3,0.1,0.6,0.2,1,0.2l0,0c0.3,0,0.6-0.1,0.9-0.2c0.3-0.1,0.5-0.3,0.8-0.5c0.2-0.2,0.4-0.4,0.5-0.7
		c0,0,0-0.1,0.1-0.1c0.1-0.3,0.2-0.6,0.2-0.9l0,0l0,0c0-0.3-0.1-0.6-0.2-0.9c-0.1-0.3-0.3-0.5-0.5-0.8
		C114,25.6,113.7,25.4,113.4,25.3 M101.5,32.3c-1.2-0.5-2.5-0.7-3.9-0.7c-0.7,0-1.4,0.1-2.1,0.2c-0.3,0.1-0.7,0.1-1,0.3
		c-0.3,0.1-0.6,0.2-0.9,0.3l0,0l0,0v0c-0.6,0.3-1.2,0.6-1.7,0.9c-0.5,0.4-1,0.8-1.5,1.2c-0.4,0.5-0.8,1-1.2,1.5
		c-0.4,0.5-0.7,1.1-0.9,1.7h0c-0.2,0.6-0.4,1.3-0.6,1.9c-0.1,0.7-0.2,1.3-0.2,2l0,0v7.9c0,0.6,0.2,1.2,0.7,1.6
		c0.2,0.2,0.5,0.4,0.8,0.5c0.3,0.1,0.6,0.2,0.9,0.2c0.3,0,0.6-0.1,0.9-0.2c0.3-0.1,0.6-0.3,0.8-0.6c0.5-0.5,0.8-1.1,0.8-1.7v-8
		c0-0.5,0.1-1,0.2-1.5c0-0.1,0.1-0.2,0.1-0.3l0,0c0-0.1,0.1-0.2,0.1-0.3l0,0l0,0l0,0c0.2-0.5,0.5-0.9,0.8-1.2
		c0.1-0.1,0.1-0.1,0.2-0.2c0.1-0.1,0.1-0.1,0.2-0.2l0,0l0,0c0.2-0.2,0.5-0.4,0.8-0.6c0.3-0.2,0.6-0.3,0.9-0.5
		c0.3-0.1,0.5-0.2,0.8-0.3c0,0,0.1,0,0.2,0c0.3-0.1,0.7-0.1,1-0.1l0,0l0,0c0.4,0,0.7,0,1.1,0.1c0.4,0.1,0.7,0.2,1,0.3
		c0.3,0.1,0.6,0.3,0.9,0.5c0.3,0.2,0.5,0.4,0.8,0.6c0.4,0.3,0.6,0.7,0.9,1.2c0,0.1,0.1,0.2,0.1,0.3c0.1,0.1,0.1,0.2,0.1,0.3l0,0
		c0.1,0.3,0.2,0.7,0.3,1c0.1,0.3,0.1,0.7,0.1,1.1v7.9c0,0.3,0.1,0.6,0.2,0.9c0.1,0.3,0.3,0.5,0.5,0.7c0.5,0.4,1.1,0.7,1.7,0.7
		c0.3,0,0.7-0.1,0.9-0.2l0,0c0.3-0.1,0.5-0.3,0.8-0.5c0.2-0.2,0.4-0.4,0.5-0.6c0,0,0-0.1,0.1-0.1c0.1-0.3,0.2-0.6,0.2-0.9h0l0,0
		v-8.1c0-1-0.1-2-0.4-2.9c-0.1-0.2-0.1-0.3-0.2-0.5c-0.1-0.2-0.1-0.3-0.2-0.5v0c-0.3-0.6-0.6-1.2-1-1.7c-0.4-0.5-0.8-1-1.3-1.4
		c-0.7-0.6-1.4-1.2-2.2-1.6c-0.2-0.1-0.3-0.2-0.5-0.2C101.9,32.4,101.7,32.4,101.5,32.3L101.5,32.3L101.5,32.3L101.5,32.3z
		 M84.4,32.5c-0.4-0.5-1-0.7-1.6-0.7l0,0c-0.3,0-0.6,0.1-0.9,0.2c-0.3,0.1-0.5,0.3-0.8,0.5c-0.5,0.4-0.7,1-0.8,1.6v15.8
		c0.1,0.7,0.4,1.3,0.8,1.7c0.2,0.2,0.5,0.3,0.7,0.5c0.3,0.1,0.6,0.1,0.9,0.1c0.5,0,1-0.2,1.3-0.4c0.1,0,0.1-0.1,0.2-0.1
		c0.1-0.1,0.1-0.1,0.2-0.2l0,0c0.2-0.2,0.4-0.5,0.5-0.8c0.1-0.3,0.2-0.6,0.2-0.9V34.3c0-0.3-0.1-0.7-0.2-0.9
		C84.8,33,84.6,32.8,84.4,32.5 M83.7,25.3c-0.3-0.1-0.6-0.2-0.9-0.2c-0.3,0-0.6,0.1-0.9,0.2c-0.3,0.1-0.5,0.3-0.8,0.5
		c-0.3,0.2-0.4,0.5-0.6,0.7c-0.1,0.3-0.2,0.6-0.2,0.9c0,0.4,0.1,0.8,0.2,1.1c0.1,0.2,0.1,0.3,0.2,0.4c0.1,0.1,0.2,0.2,0.3,0.3l0,0v0
		c0.2,0.2,0.5,0.4,0.8,0.5c0.3,0.1,0.6,0.2,1,0.2l0,0c0.3,0,0.6-0.1,0.9-0.2c0.3-0.1,0.5-0.3,0.8-0.5c0.2-0.2,0.4-0.4,0.5-0.7
		c0,0,0-0.1,0.1-0.1c0.1-0.3,0.2-0.6,0.2-0.9l0,0l0,0c0-0.3-0.1-0.6-0.2-0.9c-0.1-0.3-0.3-0.5-0.5-0.8C84.2,25.6,84,25.4,83.7,25.3
		 M75.8,25.2c-0.3-0.1-0.6-0.2-0.9-0.2l0,0c-0.5,0-0.9,0.1-1.3,0.4c-0.1,0-0.1,0.1-0.2,0.1c-0.1,0.1-0.1,0.1-0.2,0.2h0l0,0h0
		c-0.2,0.2-0.4,0.5-0.5,0.7c-0.1,0.3-0.2,0.6-0.3,0.9v9.3v3.9v9.3c0,0.3,0.1,0.6,0.3,0.9c0.1,0.3,0.3,0.5,0.5,0.7h0
		c0.3,0.3,0.7,0.5,1.1,0.6h0c0.1,0,0.2,0,0.3,0c0.1,0,0.2,0,0.3,0l0,0l0,0l0,0c0.3,0,0.7-0.1,0.9-0.2c0.3-0.1,0.5-0.3,0.8-0.5
		c0.2-0.2,0.4-0.5,0.5-0.8c0.1-0.3,0.2-0.6,0.2-1v-9.1v-3.9v-9.1c0-0.4-0.1-0.7-0.2-1c-0.1-0.3-0.3-0.6-0.5-0.8
		C76.3,25.5,76.1,25.3,75.8,25.2 M62.6,31.7L62.6,31.7L62.6,31.7c-0.7,0-1.4,0.1-2,0.2c-0.6,0.1-1.3,0.3-1.9,0.6
		c-0.6,0.3-1.2,0.6-1.7,1c-0.5,0.4-1.1,0.8-1.5,1.3c-0.9,0.9-1.7,2-2.2,3.2c-0.5,1.2-0.8,2.5-0.8,3.9c0,1,0.2,1.9,0.4,2.9
		c0.1,0.2,0.1,0.4,0.2,0.5c0.1,0.2,0.1,0.3,0.2,0.5l0,0l0,0h0c0.4,0.9,0.9,1.7,1.5,2.4h0c0.1,0.1,0.2,0.3,0.3,0.4
		c0.1,0.1,0.2,0.3,0.4,0.4l0,0c0.7,0.7,1.4,1.2,2.2,1.7c0.2,0.1,0.3,0.2,0.5,0.3c0.2,0.1,0.3,0.2,0.5,0.2l0,0
		c0.6,0.3,1.3,0.5,1.9,0.6v0c0.7,0.1,1.3,0.2,2,0.2l0,0c1,0,2-0.1,2.9-0.4c0.2-0.1,0.3-0.1,0.5-0.2c0.2-0.1,0.3-0.1,0.5-0.2l0,0
		c1.2-0.5,2.2-1.2,3.2-2.2l0,0c0.1-0.1,0.2-0.2,0.2-0.3c0.1-0.1,0.1-0.3,0.2-0.4c0.1-0.1,0.1-0.3,0.1-0.4c0-0.1,0-0.3,0-0.5
		c0-0.3-0.1-0.6-0.2-0.9c-0.1-0.2-0.2-0.4-0.3-0.5c0,0,0-0.1-0.1-0.1c0,0-0.1-0.1-0.1-0.1l0,0l0,0l0,0l0,0c-0.2-0.2-0.4-0.4-0.6-0.5
		c0,0-0.1,0-0.1-0.1c-0.3-0.1-0.6-0.2-1-0.2l0,0l0,0c-0.4,0-0.7,0.1-1,0.2c-0.3,0.1-0.5,0.3-0.8,0.6l0,0l0,0c-0.5,0.4-1,0.7-1.6,1
		c-0.6,0.2-1.2,0.3-1.9,0.3l0,0c-0.4,0-0.7,0-1-0.1c-0.3-0.1-0.7-0.2-1-0.3c-0.5-0.2-0.9-0.5-1.3-0.8v0c-0.1-0.1-0.2-0.1-0.2-0.2
		c-0.1-0.1-0.1-0.1-0.2-0.2l0,0v0l0,0c-0.4-0.3-0.7-0.7-0.9-1.2c-0.1-0.1-0.1-0.2-0.1-0.3c0-0.1-0.1-0.2-0.1-0.3l0,0v0l0,0
		c-0.1-0.3-0.2-0.7-0.3-1c-0.1-0.3-0.1-0.7-0.1-1.1c0-0.3,0-0.7,0.1-1c0.1-0.3,0.2-0.7,0.3-1c0.2-0.4,0.5-0.9,0.8-1.2
		c0.1-0.1,0.1-0.1,0.2-0.2l0,0c0.1-0.1,0.1-0.1,0.2-0.2l0,0l0,0c0.2-0.2,0.5-0.5,0.8-0.7c0.3-0.2,0.6-0.4,0.9-0.5
		c0.3-0.1,0.7-0.3,1-0.3c0.3-0.1,0.7-0.1,1.1-0.1c0.7,0,1.3,0.1,1.9,0.3c0.3,0.1,0.6,0.3,0.8,0.4c0.3,0.2,0.5,0.4,0.8,0.6h0l0,0l0,0
		c0.2,0.2,0.5,0.4,0.8,0.5c0.3,0.1,0.6,0.2,1,0.1c0.5,0,1-0.1,1.3-0.4c0.1,0,0.1-0.1,0.2-0.1c0.1,0,0.1-0.1,0.2-0.2l0,0l0,0
		c0.3-0.3,0.5-0.7,0.6-1.1c0-0.1,0-0.2,0.1-0.3c0-0.1,0-0.2,0-0.3l0,0l0,0v0c0-0.3,0-0.6-0.1-0.9c-0.1-0.3-0.2-0.5-0.5-0.8l0,0
		c-0.8-0.8-1.7-1.5-2.7-1.9c-0.2-0.1-0.4-0.2-0.6-0.3C65.3,31.9,64,31.7,62.6,31.7"/>
	<g id="XMLID_375_">
		<path id="XMLID_419_" class="st16" d="M59.3,64.7h-1.1C58,65.4,57.5,66,56.6,66c-0.4,0-0.8-0.2-1.1-0.5c-0.4-0.4-0.4-0.8-0.4-2.3
			c0-1.5,0.1-1.9,0.4-2.3c0.3-0.3,0.7-0.4,1.1-0.4c0.8,0,1.3,0.5,1.5,1.3h1.1c-0.3-1.5-1.3-2.3-2.7-2.3c-0.8,0-1.4,0.3-2,0.8
			c-0.7,0.7-0.7,1.6-0.7,3c0,1.4,0,2.3,0.7,3c0.5,0.5,1.2,0.8,2,0.8C58,67,59,66.2,59.3,64.7L59.3,64.7z"/>
		<polygon id="XMLID_418_" class="st16" points="65.3,66.9 65.3,65.9 61.8,65.9 61.8,59.5 60.6,59.5 60.6,66.9 65.3,66.9 		"/>
		<path id="XMLID_415_" class="st16" d="M67.6,66.9v-7.4h-1.1v7.4H67.6L67.6,66.9z M68.4,57h-1.2l-0.8,1.7h0.8L68.4,57L68.4,57z"/>
		<polygon id="XMLID_414_" class="st16" points="75,66.9 75,59.5 73.8,59.5 73.8,64.7 70.4,59.5 69.4,59.5 69.4,66.9 70.5,66.9 
			70.5,61.7 73.9,66.9 75,66.9 		"/>
		<polygon id="XMLID_413_" class="st16" points="77.9,66.9 77.9,59.5 76.8,59.5 76.8,66.9 77.9,66.9 		"/>
		<path id="XMLID_412_" class="st16" d="M84.7,64.7h-1.1c-0.2,0.8-0.7,1.3-1.5,1.3c-0.4,0-0.8-0.2-1.1-0.5c-0.4-0.4-0.4-0.8-0.4-2.3
			c0-1.5,0.1-1.9,0.4-2.3c0.3-0.3,0.7-0.4,1.1-0.4c0.8,0,1.3,0.5,1.5,1.3h1.1c-0.3-1.5-1.3-2.3-2.7-2.3c-0.8,0-1.4,0.3-2,0.8
			c-0.7,0.7-0.7,1.6-0.7,3c0,1.4,0,2.3,0.7,3c0.5,0.5,1.2,0.8,2,0.8C83.4,67,84.5,66.2,84.7,64.7L84.7,64.7z"/>
		<path id="XMLID_409_" class="st16" d="M91.4,66.9l-2.7-7.4h-0.9l-2.7,7.4h1.2l0.5-1.5h2.9l0.5,1.5H91.4L91.4,66.9z M89.4,64.4
			h-2.3l1.2-3.3L89.4,64.4L89.4,64.4z"/>
		<path id="XMLID_406_" class="st16" d="M100,61.7c0-1.3-0.9-2.3-2.4-2.3h-2.8v7.4h1.1V64h1.7C99.1,64,100,63,100,61.7L100,61.7z
			 M98.9,61.7c0,0.8-0.5,1.2-1.3,1.2h-1.6v-2.5h1.6C98.4,60.5,98.9,60.9,98.9,61.7L98.9,61.7z"/>
		<path id="XMLID_403_" class="st16" d="M106.6,66.9l-1.7-3.3c0.8-0.2,1.5-0.9,1.5-2c0-1.3-0.9-2.2-2.3-2.2h-2.9v7.4h1.1v-3.1h1.4
			l1.6,3.1H106.6L106.6,66.9z M105.3,61.6c0,0.7-0.5,1.2-1.3,1.2h-1.7v-2.3h1.7C104.8,60.5,105.3,60.9,105.3,61.6L105.3,61.6z"/>
		<polygon id="XMLID_402_" class="st16" points="109,66.9 109,59.5 107.9,59.5 107.9,66.9 109,66.9 		"/>
		<polygon id="XMLID_401_" class="st16" points="115.7,59.5 114.5,59.5 112.8,64.9 111.1,59.5 109.9,59.5 112.3,66.9 113.2,66.9 
			115.7,59.5 		"/>
		<path id="XMLID_398_" class="st16" d="M121.6,66.9l-2.7-7.4H118l-2.7,7.4h1.2l0.5-1.5h2.9l0.5,1.5H121.6L121.6,66.9z M119.6,64.4
			h-2.3l1.2-3.3L119.6,64.4L119.6,64.4z"/>
		<path id="XMLID_395_" class="st16" d="M127.8,63.1c0-1.1,0.1-2.2-0.8-3c-0.5-0.5-1.1-0.7-1.9-0.7h-2.6v7.4h2.6
			c0.8,0,1.5-0.2,1.9-0.7C127.9,65.4,127.8,64.2,127.8,63.1L127.8,63.1z M126.7,63.1c0,1,0,1.8-0.4,2.3c-0.3,0.3-0.7,0.5-1.3,0.5
			h-1.4v-5.4h1.4c0.5,0,1,0.2,1.3,0.5C126.7,61.4,126.7,62.1,126.7,63.1L126.7,63.1z"/>
		<path id="XMLID_392_" class="st16" d="M134.7,66.9l-2.7-7.4H131l-2.7,7.4h1.2l0.5-1.5h2.9l0.5,1.5H134.7L134.7,66.9z M132.7,64.4
			h-2.3l1.2-3.3L132.7,64.4L132.7,64.4z"/>
		<path id="XMLID_389_" class="st16" d="M143.4,63.1c0-1.1,0.1-2.2-0.8-3c-0.5-0.5-1.1-0.7-1.9-0.7h-2.6v7.4h2.6
			c0.8,0,1.5-0.2,1.9-0.7C143.4,65.4,143.4,64.2,143.4,63.1L143.4,63.1z M142.2,63.1c0,1,0,1.8-0.4,2.3c-0.3,0.3-0.7,0.5-1.3,0.5
			h-1.4v-5.4h1.4c0.5,0,0.9,0.2,1.3,0.5C142.2,61.4,142.2,62.1,142.2,63.1L142.2,63.1z"/>
		<polygon id="XMLID_388_" class="st16" points="149.6,66.9 149.6,65.9 146,65.9 146,63.7 149.1,63.7 149.1,62.7 146,62.7 146,60.5 
			149.6,60.5 149.6,59.5 144.9,59.5 144.9,66.9 149.6,66.9 		"/>
		<polygon id="XMLID_387_" class="st16" points="160.1,66.9 160.1,59.5 158.9,59.5 156.8,64.1 154.6,59.5 153.5,59.5 153.5,66.9 
			154.6,66.9 154.6,61.9 156.4,65.6 157.2,65.6 158.9,61.9 158.9,66.9 160.1,66.9 		"/>
		<path id="XMLID_384_" class="st16" d="M167.3,66.9l-2.7-7.4h-0.9l-2.7,7.4h1.2l0.5-1.5h2.9l0.5,1.5H167.3L167.3,66.9z M165.3,64.4
			H163l1.2-3.3L165.3,64.4L165.3,64.4z"/>
		<path id="XMLID_381_" class="st16" d="M173.4,61.7c0-1.3-0.9-2.3-2.4-2.3h-2.8v7.4h1.1V64h1.7C172.5,64,173.4,63,173.4,61.7
			L173.4,61.7z M172.3,61.7c0,0.8-0.5,1.2-1.3,1.2h-1.6v-2.5h1.6C171.7,60.5,172.3,60.9,172.3,61.7L172.3,61.7z"/>
		<path id="XMLID_380_" class="st16" d="M179.8,64.4v-4.9h-1.1v4.9c0,1-0.6,1.6-1.5,1.6c-0.9,0-1.5-0.6-1.5-1.6v-4.9h-1.1v4.9
			c0,1.5,1.1,2.6,2.7,2.6C178.7,67,179.8,65.9,179.8,64.4L179.8,64.4z"/>
		<polygon id="XMLID_379_" class="st16" points="186,60.5 186,59.5 180.8,59.5 180.8,60.5 182.9,60.5 182.9,66.9 184,66.9 184,60.5 
			186,60.5 		"/>
		<path id="XMLID_376_" class="st16" d="M192,63.2c0-1.4,0-2.3-0.7-3c-0.5-0.5-1.2-0.8-2-0.8c-0.8,0-1.4,0.3-2,0.8
			c-0.7,0.7-0.7,1.6-0.7,3c0,1.4,0,2.3,0.7,3c0.5,0.5,1.2,0.8,2,0.8c0.8,0,1.5-0.3,2-0.8C192,65.4,192,64.6,192,63.2L192,63.2z
			 M190.9,63.2c0,1.5-0.1,1.9-0.4,2.3c-0.3,0.3-0.7,0.5-1.1,0.5c-0.4,0-0.8-0.2-1.1-0.5c-0.4-0.4-0.4-0.8-0.4-2.3
			c0-1.5,0.1-1.9,0.4-2.3c0.3-0.3,0.7-0.5,1.1-0.5c0.4,0,0.8,0.2,1.1,0.5C190.8,61.3,190.9,61.7,190.9,63.2L190.9,63.2z"/>
	</g>
</g>
</svg>
